<svg xmlns="http://www.w3.org/2000/svg" width="48" height="48" viewBox="0 0 48 48"><g fill="none" fill-rule="evenodd"><path d="M0 48h48V0H0z"/><path fill="#49739A" d="M33.621 6.467c-3.442 0-7.044 1.68-9.622 5.282-2.576-3.602-6.178-5.282-9.62-5.282-3.612 0-7.048 1.85-8.932 5.266-6.858 12.418 12.616 25.948 17.48 29.074.33.21.702.316 1.072.316.372 0 .744-.106 1.074-.316 4.864-3.126 24.338-16.656 17.48-29.074-1.886-3.416-5.32-5.266-8.932-5.266m0 2c3.034 0 5.718 1.582 7.182 4.232 6.062 10.982-12.94 23.938-16.796 26.424-3.87-2.486-22.872-15.442-16.81-26.424 1.464-2.65 4.148-4.232 7.182-4.232 3.06 0 5.974 1.622 7.994 4.446l1.626 2.274 1.628-2.274c2.02-2.824 4.934-4.446 7.994-4.446"/></g></svg>