<svg xmlns="http://www.w3.org/2000/svg" xmlns:xlink="http://www.w3.org/1999/xlink" width="32" height="32" viewBox="0 0 32 32">
    <defs>
        <path id="cca2f621oa" d="M16 0c8.836 0 16 7.164 16 16 0 8.837-7.164 16-16 16S0 24.837 0 16C0 7.164 7.164 0 16 0zm1.083 5.459h-2.166c-1.898.003-2.3.019-3.263.063-1.122.05-1.888.229-2.558.49-.695.269-1.283.63-1.868 1.216-.586.586-.947 1.174-1.216 1.867-.262.67-.439 1.438-.491 2.56-.043.962-.059 1.364-.062 3.262v2.166c.003 1.899.02 2.3.062 3.263.052 1.122.229 1.889.491 2.56.269.692.63 1.28 1.216 1.867.585.586 1.173.947 1.868 1.216.67.26 1.436.438 2.558.49.963.043 1.365.058 3.263.062h2.166c1.898-.004 2.3-.019 3.264-.062 1.122-.052 1.888-.23 2.558-.49.693-.27 1.281-.63 1.867-1.216.587-.586.947-1.175 1.216-1.867.261-.671.439-1.438.49-2.56.044-.964.059-1.364.062-3.263l.001-.786V16v-1.083c-.004-1.898-.02-2.3-.063-3.262-.051-1.122-.229-1.89-.49-2.56-.269-.693-.629-1.281-1.216-1.867-.586-.586-1.174-.947-1.867-1.216-.67-.261-1.436-.44-2.558-.49-.963-.044-1.366-.06-3.264-.063zm-.019 1.9c1.862.003 2.243.017 3.196.06 1.028.047 1.586.219 1.957.364.492.19.843.419 1.212.789.37.368.598.719.789 1.212.144.37.317.929.363 1.957.044.952.058 1.333.061 3.195l.001.771v1.357c-.004 1.863-.018 2.243-.062 3.196-.046 1.027-.219 1.586-.363 1.957-.191.492-.419.844-.789 1.212-.369.369-.72.598-1.212.789-.371.146-.929.316-1.957.363-.953.043-1.334.057-3.196.06l-.772.002h-.584l-.772-.001c-1.862-.004-2.244-.018-3.195-.061-1.029-.047-1.587-.217-1.958-.363-.491-.191-.844-.42-1.212-.79-.369-.367-.597-.72-.789-1.211-.144-.371-.316-.93-.362-1.957-.045-.953-.059-1.333-.062-3.196l-.001-.772V16v-1.064c.004-1.862.018-2.243.063-3.195.046-1.028.218-1.586.362-1.957.192-.493.42-.844.789-1.212.368-.37.721-.598 1.212-.79.371-.144.929-.316 1.958-.363.238-.011.44-.02.64-.027l.198-.007c.533-.017 1.116-.024 2.357-.027zM16 10.586c-2.989 0-5.413 2.424-5.413 5.413 0 2.99 2.424 5.413 5.413 5.413 2.99 0 5.413-2.422 5.413-5.413 0-2.99-2.423-5.413-5.413-5.413zm0 1.899c1.94 0 3.514 1.573 3.514 3.514 0 1.942-1.574 3.514-3.514 3.514-1.941 0-3.514-1.572-3.514-3.514 0-1.941 1.573-3.514 3.514-3.514zm5.627-3.378c-.699 0-1.265.567-1.265 1.265 0 .699.566 1.265 1.265 1.265s1.266-.566 1.266-1.265c0-.698-.567-1.265-1.266-1.265z"/>
    </defs>
    <g fill="none" fill-rule="evenodd">
        <g>
            <g>
                <g transform="translate(-1648 -71) translate(1516 71) translate(132)">
                    <circle cx="16" cy="16" r="13" fill="#FFF"/>
                    <use fill="#67788D" xlink:href="#cca2f621oa"/>
                </g>
            </g>
        </g>
    </g>
</svg>
