<svg xmlns="http://www.w3.org/2000/svg" width="24" height="24" viewBox="0 0 24 24">
    <g fill="none" fill-rule="evenodd">
        <path fill="#000" fill-opacity="0" d="M0 24L24 24 24 0 0 0z"/>
        <path fill="#7D90A8" d="M12 14.934c-2.485 0-4.5-2.015-4.5-4.5s2.015-4.5 4.5-4.5 4.5 2.015 4.5 4.5-2.015 4.5-4.5 4.5m0-12.837c-4.604 0-8.337 3.733-8.337 8.337h.004c-.019 2.359.947 4.49 2.506 6.018 1.13 1.106 4.009 3.93 5.247 5.145.162.158.371.238.579.238.209 0 .418-.08.58-.238 1.238-1.215 4.117-4.04 5.247-5.145 1.559-1.528 2.525-3.66 2.506-6.018h.005c0-4.604-3.733-8.337-8.337-8.337"/>
    </g>
</svg>
