<svg width="20" height="20" viewBox="0 0 20 20" fill="none" xmlns="http://www.w3.org/2000/svg">
<g clip-path="url(#clip0_2908_2876)">
<path d="M10.0001 12.2727C11.2553 12.2727 12.2728 11.2552 12.2728 10C12.2728 8.74483 11.2553 7.72729 10.0001 7.72729C8.74489 7.72729 7.72735 8.74483 7.72735 10C7.72735 11.2552 8.74489 12.2727 10.0001 12.2727Z" stroke="#667085" stroke-width="1.5" stroke-linecap="round" stroke-linejoin="round"/>
<path d="M15.6061 12.2727C15.5053 12.5012 15.4752 12.7547 15.5198 13.0005C15.5643 13.2462 15.6815 13.473 15.8561 13.6515L15.9016 13.697C16.0425 13.8377 16.1542 14.0048 16.2305 14.1887C16.3067 14.3727 16.346 14.5698 16.346 14.769C16.346 14.9681 16.3067 15.1652 16.2305 15.3492C16.1542 15.5331 16.0425 15.7002 15.9016 15.8409C15.7609 15.9818 15.5938 16.0936 15.4098 16.1698C15.2259 16.2461 15.0287 16.2853 14.8296 16.2853C14.6305 16.2853 14.4334 16.2461 14.2494 16.1698C14.0655 16.0936 13.8984 15.9818 13.7577 15.8409L13.7122 15.7955C13.5337 15.6208 13.3069 15.5037 13.0611 15.4591C12.8154 15.4145 12.5619 15.4446 12.3334 15.5455C12.1093 15.6415 11.9183 15.801 11.7836 16.0042C11.649 16.2075 11.5768 16.4456 11.5758 16.6894V16.8182C11.5758 17.22 11.4162 17.6054 11.1321 17.8896C10.8479 18.1737 10.4625 18.3334 10.0607 18.3334C9.65884 18.3334 9.27346 18.1737 8.98931 17.8896C8.70517 17.6054 8.54554 17.22 8.54554 16.8182V16.75C8.53967 16.4993 8.4585 16.2561 8.31259 16.0521C8.16667 15.8481 7.96276 15.6927 7.72735 15.6061C7.49886 15.5052 7.24539 15.4752 6.99964 15.5197C6.75388 15.5643 6.52711 15.6814 6.34857 15.8561L6.30311 15.9015C6.16239 16.0424 5.99529 16.1542 5.81135 16.2304C5.62742 16.3067 5.43026 16.3459 5.23114 16.3459C5.03203 16.3459 4.83487 16.3067 4.65093 16.2304C4.46699 16.1542 4.29989 16.0424 4.15917 15.9015C4.0183 15.7608 3.90654 15.5937 3.83029 15.4098C3.75404 15.2258 3.7148 15.0287 3.7148 14.8296C3.7148 14.6305 3.75404 14.4333 3.83029 14.2494C3.90654 14.0654 4.0183 13.8983 4.15917 13.7576L4.20463 13.7121C4.37928 13.5336 4.49643 13.3068 4.54099 13.0611C4.58555 12.8153 4.55547 12.5619 4.45463 12.3334C4.35859 12.1093 4.19914 11.9182 3.99589 11.7836C3.79264 11.649 3.55447 11.5768 3.31069 11.5758H3.1819C2.78006 11.5758 2.39467 11.4161 2.11053 11.132C1.82638 10.8479 1.66675 10.4625 1.66675 10.0606C1.66675 9.65878 1.82638 9.2734 2.11053 8.98925C2.39467 8.70511 2.78006 8.54547 3.1819 8.54547H3.25008C3.50083 8.53961 3.74402 8.45844 3.94804 8.31253C4.15205 8.16661 4.30744 7.9627 4.39402 7.72729C4.49487 7.4988 4.52495 7.24533 4.48039 6.99957C4.43583 6.75382 4.31867 6.52705 4.14402 6.34851L4.09857 6.30305C3.95769 6.16233 3.84594 5.99523 3.76969 5.81129C3.69344 5.62736 3.65419 5.4302 3.65419 5.23108C3.65419 5.03197 3.69344 4.8348 3.76969 4.65087C3.84594 4.46693 3.95769 4.29983 4.09857 4.15911C4.23928 4.01824 4.40639 3.90648 4.59032 3.83023C4.77426 3.75398 4.97142 3.71474 5.17054 3.71474C5.36965 3.71474 5.56681 3.75398 5.75075 3.83023C5.93468 3.90648 6.10179 4.01824 6.24251 4.15911L6.28796 4.20457C6.4665 4.37921 6.69328 4.49637 6.93903 4.54093C7.18478 4.58549 7.43825 4.55541 7.66675 4.45457H7.72735C7.95142 4.35853 8.14252 4.19908 8.27712 3.99583C8.41172 3.79258 8.48396 3.5544 8.48493 3.31063V3.18184C8.48493 2.78 8.64456 2.39461 8.92871 2.11046C9.21285 1.82632 9.59824 1.66669 10.0001 1.66669C10.4019 1.66669 10.7873 1.82632 11.0715 2.11046C11.3556 2.39461 11.5152 2.78 11.5152 3.18184V3.25002C11.5162 3.4938 11.5884 3.73197 11.723 3.93522C11.8576 4.13847 12.0487 4.29793 12.2728 4.39396C12.5013 4.4948 12.7548 4.52489 13.0005 4.48033C13.2463 4.43577 13.4731 4.31861 13.6516 4.14396L13.6971 4.09851C13.8378 3.95763 14.0049 3.84588 14.1888 3.76963C14.3727 3.69338 14.5699 3.65413 14.769 3.65413C14.9681 3.65413 15.1653 3.69338 15.3492 3.76963C15.5332 3.84588 15.7003 3.95763 15.841 4.09851C15.9819 4.23922 16.0936 4.40633 16.1699 4.59026C16.2461 4.7742 16.2854 4.97136 16.2854 5.17047C16.2854 5.36959 16.2461 5.56675 16.1699 5.75069C16.0936 5.93462 15.9819 6.10173 15.841 6.24244L15.7955 6.2879C15.6209 6.46644 15.5037 6.69321 15.4592 6.93897C15.4146 7.18472 15.4447 7.43819 15.5455 7.66669V7.72729C15.6416 7.95136 15.801 8.14246 16.0043 8.27706C16.2075 8.41166 16.4457 8.4839 16.6895 8.48487H16.8183C17.2201 8.48487 17.6055 8.6445 17.8896 8.92865C18.1738 9.21279 18.3334 9.59818 18.3334 10C18.3334 10.4019 18.1738 10.7872 17.8896 11.0714C17.6055 11.3555 17.2201 11.5152 16.8183 11.5152H16.7501C16.5063 11.5161 16.2681 11.5884 16.0649 11.723C15.8616 11.8576 15.7022 12.0487 15.6061 12.2727Z" stroke="#667085" stroke-width="1.5" stroke-linecap="round" stroke-linejoin="round"/>
</g>
<defs>
<clipPath id="clip0_2908_2876">
<rect width="20" height="20" fill="white"/>
</clipPath>
</defs>
</svg>
