<svg xmlns="http://www.w3.org/2000/svg" width="32" height="32" viewBox="0 0 32 32">
    <g fill="none" fill-rule="evenodd">
        <g>
            <g>
                <g>
                    <g fill="#67788D" transform="translate(-1560 -71) translate(1516 71) translate(44)">
                        <circle cx="16" cy="16" r="16"/>
                    </g>
                    <path fill="#FFF" d="M25.989 10.748c-.666.298-1.384.497-2.133.586.766-.458 1.358-1.192 1.633-2.062-.717.43-1.513.738-2.362.903C22.45 9.455 21.485 9 20.414 9c-2.053 0-3.72 1.672-3.72 3.73 0 .292.033.577.096.848-3.092-.156-5.833-1.642-7.666-3.894-.321.547-.504 1.192-.504 1.875 0 1.29.658 2.43 1.653 3.101-.607-.02-1.182-.186-1.683-.467v.047c0 .48.092.934.254 1.353.455 1.167 1.475 2.05 2.73 2.304-.313.085-.641.131-.98.131-.241 0-.475-.024-.7-.067.472 1.48 1.847 2.559 3.475 2.588-1.275 1.001-2.879 1.6-4.62 1.6-.304 0-.595-.017-.892-.055 1.65 1.061 3.604 1.675 5.704 1.675 5.816 0 9.39-4.102 10.333-8.358.165-.751.253-1.51.253-2.248 0-.161-.004-.323-.012-.485.73-.525 1.359-1.183 1.854-1.93" transform="translate(-1560 -71) translate(1516 71) translate(44)"/>
                </g>
            </g>
        </g>
    </g>
</svg>
