<svg width="24" height="24" viewBox="0 0 24 24" fill="none" xmlns="http://www.w3.org/2000/svg">
  <path
    d="M6.7944 18.7466C6.35705 18.9369 6.13837 19.0321 6.00417 18.9903C5.88784 18.954 5.79668 18.864 5.75991 18.749C5.71749 18.6163 5.81345 18.3999 6.00538 17.9671L11.452 5.68477C11.6252 5.29408 11.7119 5.09873 11.833 5.03894C11.9381 4.98702 12.0619 4.98702 12.167 5.03894C12.2881 5.09873 12.3748 5.29408 12.548 5.68477L17.9946 17.9671C18.1865 18.3999 18.2825 18.6163 18.2401 18.749C18.2033 18.864 18.1122 18.954 17.9958 18.9903C17.8616 19.0321 17.643 18.9369 17.2056 18.7466L12.241 16.5861C12.1522 16.5474 12.1078 16.5281 12.0617 16.5205C12.0209 16.5137 11.9791 16.5137 11.9383 16.5205C11.8922 16.5281 11.8478 16.5474 11.759 16.5861L6.7944 18.7466Z"
    fill="#879CB2" stroke="#879CB2" stroke-width="1.5" stroke-linecap="round"
    stroke-linejoin="round" />
</svg>