<svg xmlns="http://www.w3.org/2000/svg" width="14" height="14" viewBox="0 0 14 14">
    <g fill="none" fill-rule="evenodd">
        <path fill="#D8D8D8" fill-opacity="0" d="M0 0L14 0 14 14 0 14z" transform="rotate(-180 7 7) rotate(-90 7 7)"/>
        <path fill="#FFF" d="M7.38 4.121l4.44 5.164c.18.21.157.525-.052.705-.091.078-.207.121-.326.121H2.558c-.276 0-.5-.224-.5-.5 0-.12.043-.235.121-.326l4.442-5.164c.18-.21.496-.233.705-.053.019.016.037.034.053.053z" transform="rotate(-180 7 7)"/>
    </g>
</svg>
