<svg xmlns="http://www.w3.org/2000/svg" xmlns:xlink="http://www.w3.org/1999/xlink" width="148" height="30" viewBox="0 0 148 30">
    <defs>
        <path id="a" d="M0 .052h17.929V17.98H0z"/>
    </defs>
    <g fill="none" fill-rule="evenodd">
        <path d="M0 0v30h148V0z"/>
        <path fill="#FFF" d="M27.815 20.152c.021 2.887.265 2.488 1.547 2.643l.6.077c.363.047.344 1.166-.047 1.169-1.2.008-6.098-.01-7.297 0-.315.002-.323-1.034-.063-1.113l.598-.085c1.278-.174 1.525.22 1.503-2.666l-.078-10.128c-.022-2.887-.265-2.644-1.546-2.798l-.6-.077c-.329-.046-.39-1.166.046-1.168 1.2-.01 6.098.008 7.298 0 .337-.003.345 1.06.062 1.11l-.597.087c-1.28.174-1.527-.067-1.504 2.82l.078 10.13zM57.513 17.015l4.773-.037-1.075-7.092h-.048l-3.65 7.129zm1.968-11h4.347l3.581 17.962h-3.898L62.72 19.9l-6.675.052-2.136 4.025h-4.473L59.481 6.016zM74.916 9.477l-3.682.026.632-3.521h3.67l-.62 3.495zm-4.152 2.872l3.653-.02-2.013 11.648H68.75l2.013-11.628zM76.99 12.309l3.373-.02-.36 1.935.051.05c.726-1.78 2.4-2.641 4.3-2.655.253-.002.741.028.741.028l-.507 3.133s-.767-.145-1.146-.142c-2.724.02-3.682 2.078-4.065 4.28l-.908 5.059h-3.48l2-11.668z"/>
        <g transform="translate(0 6)">
            <mask id="b" fill="#fff">
                <use xlink:href="#a"/>
            </mask>
            <path fill="#FFF" d="M3.329 7.3v3.425h3.92v3.92h3.433v-3.922H14.6V7.306h-3.918v-3.92H7.249v3.92L3.329 7.3zm14.6 9.31a1.37 1.37 0 0 1-1.37 1.37H1.368A1.368 1.368 0 0 1 0 16.61V1.42C0 .663.612.052 1.368.052h15.19c.757 0 1.37.61 1.37 1.367V16.61z" mask="url(#b)"/>
        </g>
        <path fill="#FFF" d="M86.789 7.615h.287c.243 0 .466-.012.466-.28 0-.228-.202-.263-.39-.263h-.363v.543zm-.274-.759h.683c.42 0 .618.161.618.49 0 .308-.202.437-.465.464l.506.755h-.296l-.48-.735h-.292v.735h-.274V6.856zm.589 2.105c.7 0 1.244-.54 1.244-1.256 0-.7-.543-1.239-1.244-1.239-.708 0-1.25.54-1.25 1.24 0 .715.542 1.255 1.25 1.255zm0-2.71c.826 0 1.518.63 1.518 1.454 0 .842-.692 1.471-1.518 1.471-.83 0-1.525-.629-1.525-1.47 0-.826.696-1.455 1.525-1.455zM34.862 14.623c-.028-3.689 1.396-7.644 5.477-7.675h.044c4.11 0 6.016 4.49 6.048 8.675.021 2.555-.505 4.526-1.56 5.861-.93 1.174-2.255 1.801-3.835 1.814h-.046c-1.995 0-3.627-1.007-4.718-2.914-.88-1.536-1.393-3.637-1.41-5.76M53.53 28.526a3.835 3.835 0 0 1-1.259.193c-.653-.01-1.11-.106-1.765-.29-2.046-.584-4.487-2.56-6.049-3.91-.176-.142-.283-.273-.314-.38l.053-.02.11-.038c3.753-1.26 6.158-4.78 6.125-8.97-.019-2.573-.906-4.939-2.497-6.663-1.769-1.918-4.278-2.925-7.26-2.895-2.796.021-5.32 1.033-7.11 2.85-1.775 1.804-2.742 4.307-2.722 7.048.04 4.873 3.736 8.821 8.6 9.186.433.036.656.135.862.257.056.051.116.107.18.171 2.691 2.812 6.466 4.806 10.115 4.778 1.171-.009 2.298-.127 3.098-.775.217-.175.145-.657-.167-.542M107.144 6.124v1.448H96.536v6.44h9.934v1.447h-9.934v7.04h10.732v1.446h-12.43V6.125zM117.527 16.907c-.1.183-.292.316-.574.398a5.724 5.724 0 0 1-.749.176 48.39 48.39 0 0 1-2.059.312c-.708.092-1.352.23-1.934.412-.583.183-1.062.445-1.436.786-.374.341-.56.828-.56 1.46 0 .4.078.753.236 1.06.158.31.37.575.636.8.266.224.574.395.924.511a3.35 3.35 0 0 0 1.073.175c.6 0 1.172-.09 1.722-.275a4.22 4.22 0 0 0 1.435-.798c.408-.35.732-.774.974-1.273.241-.499.362-1.065.362-1.698v-2.046h-.05zm-7.862-3.844c.265-.55.628-.999 1.086-1.347a4.578 4.578 0 0 1 1.61-.775 7.852 7.852 0 0 1 2.046-.25 9.04 9.04 0 0 1 1.697.163 4.113 4.113 0 0 1 1.523.612c.45.3.815.72 1.098 1.26.282.541.424 1.244.424 2.11v6.84c0 .631.308.947.924.947.183 0 .35-.033.5-.1v1.322a7.909 7.909 0 0 1-.487.076 4.965 4.965 0 0 1-.538.024c-.399 0-.719-.053-.96-.162a1.288 1.288 0 0 1-.562-.46 1.743 1.743 0 0 1-.263-.713 6.191 6.191 0 0 1-.06-.91h-.05c-.285.415-.57.785-.862 1.11a4.252 4.252 0 0 1-.974.811 4.45 4.45 0 0 1-1.223.5c-.458.115-1.003.174-1.634.174a6.51 6.51 0 0 1-1.686-.212 3.809 3.809 0 0 1-1.373-.674 3.229 3.229 0 0 1-.923-1.173c-.224-.475-.337-1.036-.337-1.685 0-.899.2-1.602.6-2.109.398-.508.927-.894 1.584-1.16a9.042 9.042 0 0 1 2.222-.562c.824-.108 1.66-.212 2.508-.312a9.03 9.03 0 0 0 .873-.125c.25-.05.458-.138.624-.263a1.21 1.21 0 0 0 .388-.51c.091-.217.137-.5.137-.849 0-.533-.088-.97-.262-1.31a2.064 2.064 0 0 0-.725-.812 2.906 2.906 0 0 0-1.073-.412 7.327 7.327 0 0 0-1.309-.113c-.999 0-1.815.238-2.448.712-.63.474-.964 1.236-.997 2.284h-1.573c.05-.749.208-1.398.475-1.947zM123.742 11.066v3.021h.05c.399-1.048 1.019-1.856 1.859-2.421.84-.567 1.843-.825 3.008-.775v1.573c-.716-.034-1.364.063-1.947.287a4.372 4.372 0 0 0-1.51.962 4.325 4.325 0 0 0-.985 1.485 4.945 4.945 0 0 0-.35 1.884v6.863h-1.573V11.066h1.448zM135.273 11.066v1.323h-2.62v8.687c0 .514.07.92.211 1.21.141.291.495.453 1.061.486.45 0 .9-.023 1.348-.074v1.322c-.233 0-.466.009-.699.026-.233.015-.466.024-.699.024-1.048 0-1.78-.203-2.197-.61-.416-.409-.615-1.163-.598-2.26v-8.81h-2.246v-1.324h2.246V7.197h1.572v3.87h2.621zM139.092 6.124v7.163h.05c.3-.78.832-1.41 1.597-1.884a4.699 4.699 0 0 1 2.52-.712c.9 0 1.652.118 2.26.35.607.233 1.094.562 1.46.986.366.424.625.945.774 1.56.15.616.225 1.307.225 2.072v8.286h-1.573V15.91c0-.55-.05-1.06-.15-1.536a3.246 3.246 0 0 0-.523-1.234 2.542 2.542 0 0 0-1.011-.825c-.425-.2-.953-.299-1.585-.299-.633 0-1.194.112-1.685.337a3.648 3.648 0 0 0-1.248.923 4.279 4.279 0 0 0-.8 1.398 5.69 5.69 0 0 0-.311 1.76v7.512h-1.572V6.125h1.572z"/>
    </g>
</svg>
